<svg xmlns="http://www.w3.org/2000/svg" xmlns:xlink="http://www.w3.org/1999/xlink" viewBox="0 0 225.16 157.07"><defs><style>.cls-1{fill:#fff;}.cls-2{fill:#f09003;}.cls-3{fill:#010101;}.cls-4{fill:url(#radial-gradient);}.cls-5{fill:#109939;}.cls-6{fill:#303031;}.cls-7{fill:#1d1d1b;}</style><radialGradient id="radial-gradient" cx="758.39" cy="1767.5" r="0.1" gradientTransform="matrix(503.73, -0.07, 0.07, 503.67, -382088.49, -890178.45)" gradientUnits="userSpaceOnUse"><stop offset="0" stop-color="#fbc98c"/><stop offset="1" stop-color="#f09003"/></radialGradient></defs><g id="Layer_2" data-name="Layer 2"><g id="Layer_1-2" data-name="Layer 1"><path class="cls-1" d="M0,107.67H61.25V0H0Z"/><path class="cls-2" d="M1.13,87h59V1.13h-59Z"/><path class="cls-3" d="M1.13,106.54h59V88.09h-59Z"/><path class="cls-1" d="M15.4,77.78l-.12,2.57-.08.1a7,7,0,0,1-2.91.61c-4.16,0-6.15-2.92-6.15-6.23,0-3,1.54-6.48,5.94-6.48a8.13,8.13,0,0,1,3.15.64l.07.08-.16,2.39-.15,0a3.64,3.64,0,0,0-2.4-.83c-2.77,0-3.28,2.61-3.28,4.1,0,2.45,1.36,3.92,3.3,3.92a4.12,4.12,0,0,0,2.67-1"/><path class="cls-1" d="M26.22,70.2a4.31,4.31,0,0,0-1-1,5.9,5.9,0,0,0-3.25-.88,6,6,0,0,0-3,.73A5.43,5.43,0,0,0,16.31,73a10.55,10.55,0,0,0-.15,1.76,6.58,6.58,0,0,0,1.73,4.89,5.82,5.82,0,0,0,3.94,1.4,5.57,5.57,0,0,0,3.64-1.16,6.86,6.86,0,0,0,2-5.23,6.69,6.69,0,0,0-1.27-4.47m-2.69,1.1a3,3,0,0,1,.59,1.4,10.41,10.41,0,0,1,.19,1.71c.07,2.59-.48,4.45-2.45,4.45-2.37,0-2.52-2.79-2.52-4.35,0-2.07.49-3.14,1.29-3.66a2.48,2.48,0,0,1,1.25-.34,2.13,2.13,0,0,1,1.65.79"/><path class="cls-1" d="M33,76.05c1.14,2,1.39,2.49,2.49,4.75l.13.09c.53,0,1-.07,1.57-.09s1.07,0,1.59,0l.11-.21a28.23,28.23,0,0,1-2.06-3.09c-.55-.88-.82-1.35-1.24-2.11A3.36,3.36,0,0,0,37.9,72.1,3.4,3.4,0,0,0,36.3,69c-.89-.46-1.8-.48-3.79-.45l-1.19,0H29.24l-.09.11c.07,1.74.14,3.53.14,8.23,0,1.61,0,2.38-.07,3.82l.1.1c1.25,0,1.52-.07,2.91,0l.11-.1c-.14-2-.16-2.56-.17-4.62Zm-.8-5.37c.24,0,.48,0,.71,0,.67,0,2,0,2,1.52a1.68,1.68,0,0,1-.75,1.52,3.81,3.81,0,0,1-1.94.35"/><path class="cls-1" d="M49.74,77.78c0,.79,0,1.59,0,2.38l-.08.14a11.5,11.5,0,0,1-4,.76,8.17,8.17,0,0,1-2.28-.3,5.31,5.31,0,0,1-2.91-1.91,6.52,6.52,0,0,1-1.19-4,7.74,7.74,0,0,1,.87-3.64,5.78,5.78,0,0,1,5.41-2.87,8.25,8.25,0,0,1,3.62.8l.09.1c-.14,1-.17,1.31-.26,2.38l-.13.05a4.75,4.75,0,0,0-2.86-1.05c-2.15,0-3.59,1.49-3.59,4.21,0,1.3.47,3.85,3.11,3.85a5,5,0,0,0,1.28-.19,24.28,24.28,0,0,0-.14-3.67l.09-.11,2.89,0,.08.1c0,.88,0,1.75,0,2.61"/><path class="cls-1" d="M55.07,68.66C55,71,55,73.43,55,75.81s0,3.3.12,4.88l-.1.11c-1.41,0-1.75,0-3,0l-.08-.1c.07-1.8.1-2.85.1-4.89,0-4.4-.05-5.28-.16-7.15l.07-.1c1.23,0,1.62,0,3.08,0"/><path class="cls-1" d="M11.19,100.9v-8h-2V96H7.13V92.89h-2v8h2V97.73H9.22v3.17h2"/><path class="cls-1" d="M17.42,97.88a3,3,0,0,0-.67-2.32,2.57,2.57,0,0,0-1.94-.78,2.58,2.58,0,0,0-2,.78,4.41,4.41,0,0,0,0,4.64,2.57,2.57,0,0,0,2,.77,2.57,2.57,0,0,0,1.94-.77,3,3,0,0,0,.67-2.32Zm-1.85,0c0,.59,0,1-.27,1.26a.66.66,0,0,1-.49.16.67.67,0,0,1-.5-.16A1.86,1.86,0,0,1,14,97.88a1.83,1.83,0,0,1,.27-1.26.63.63,0,0,1,.5-.17.62.62,0,0,1,.49.17c.24.23.27.66.27,1.26"/><path class="cls-1" d="M27,100.9V97a2.26,2.26,0,0,0-.66-1.73,2.06,2.06,0,0,0-1.45-.51,2.32,2.32,0,0,0-1.71.64,1.8,1.8,0,0,0-1.47-.64,2,2,0,0,0-1.41.56v-.5h-1.8v6.05h1.85V97.28a.74.74,0,1,1,1.48,0v3.62h1.85V97.28a.74.74,0,1,1,1.48,0v3.62H27"/><path class="cls-1" d="M33.21,98.47v-.82a2.64,2.64,0,0,0-2.72-2.86c-1.59,0-2.71,1.11-2.71,3.09,0,2.61,1.54,3.09,2.88,3.09A3,3,0,0,0,33,100l-1.1-1.1a1.51,1.51,0,0,1-1.25.51,1,1,0,0,1-1.07-1Zm-1.82-1.22h-1.8a1.06,1.06,0,0,1,.1-.48.81.81,0,0,1,.8-.47.82.82,0,0,1,.8.47,1.06,1.06,0,0,1,.1.48"/><path class="cls-1" d="M40.14,95.47a2.57,2.57,0,0,0-2.74-2.58H34.23v8h2V98h1.2a2.56,2.56,0,0,0,2.74-2.57Zm-2,0a.82.82,0,0,1-.86.81H36.2V94.66h1.11a.82.82,0,0,1,.86.81"/><path class="cls-1" d="M43.73,100.9V99.35h-.64a.33.33,0,0,1-.37-.37V92.89H40.87v6.22a1.74,1.74,0,0,0,1.88,1.79h1"/><path class="cls-1" d="M49.34,100.9V97c0-1.48-.93-2.2-2.67-2.2a2.67,2.67,0,0,0-2.2.81l1.15,1.15a1.14,1.14,0,0,1,1-.4c.64,0,.91.2.91.75v.15H46.27c-1.44,0-2.06.85-2.06,1.76a2,2,0,0,0,.53,1.42,2.06,2.06,0,0,0,1.45.54,1.67,1.67,0,0,0,1.35-.55v.49ZM47.5,98.63a.81.81,0,0,1-.18.61.9.9,0,0,1-.73.22c-.41,0-.61-.23-.61-.5s.22-.49.58-.49h.94v.16"/><path class="cls-1" d="M55.67,100.9V97a2.21,2.21,0,0,0-.61-1.73,1.86,1.86,0,0,0-1.36-.51,2,2,0,0,0-1.41.56v-.5h-1.8v6.05h1.85V97.28a.74.74,0,1,1,1.48,0v3.62h1.85"/><path class="cls-1" d="M60.73,6.54a54.23,54.23,0,0,0-6.67-.39c-12.5,0-19.53,4.2-20.94,5-.22.12-.41.24-.58.35C34,10.69,41,6.73,53.47,6.73a56.05,56.05,0,0,1,6.65.39"/><path class="cls-3" d="M53.47,62.19S33.6,50.46,31,28.17a71.52,71.52,0,0,1-.33-13.26c.11-2.13.4-2.62,1.55-3.3-1.32.72-1.66,1.14-1.85,3.32a68.28,68.28,0,0,0-.17,13.14C32,50.84,52.39,63.51,52.39,63.51a51.76,51.76,0,0,0,8.08-6.73,46.47,46.47,0,0,1-7,5.42"/><path class="cls-4" d="M54.09,6.69c-13.29,0-20,4.07-21.51,4.84s-1.82,1-2,3.31a66.26,66.26,0,0,0,.22,13.28c2.71,22.4,22.44,34.2,22.44,34.2a65.74,65.74,0,0,0,6.82-5V7.1c-2-.19-4.05-.41-6-.41Z"/><path class="cls-5" d="M144.88,35.15a22,22,0,0,1,13,4l-1.33-3.43h14.11l4.94,16.93,1.08,3.81s.55-2,1.09-3.81l4.94-16.93h14.11l-1.35,3.48a22,22,0,0,1,13.06-4.07c.69,0,1.37,0,2,.08L203.28,8.1l-73,19.57,2.86,10.68A22.37,22.37,0,0,1,144.88,35.15Z"/><path class="cls-5" d="M208.52,47.39c-4.29,0-7,3.3-7,7.25,0,4.25,2.86,7.16,7,7.16s7-2.91,7-7.16a8.4,8.4,0,0,0-.17-1.68l-.25-.92A6.66,6.66,0,0,0,208.52,47.39Z"/><path class="cls-5" d="M151.83,54.64c0-4-2.66-7.25-7-7.25s-7,3.3-7,7.25c0,4.25,2.86,7.16,7,7.16S151.83,58.89,151.83,54.64Z"/><path class="cls-5" d="M208.52,73.54c-10.2,0-18.69-5.78-20.29-15.63L182.4,73H171l-5.79-15c-1.65,9.79-10.11,15.54-20.28,15.54-.8,0-1.59,0-2.37-.11l7.31,27.27,73-19.57L220,70.64A23.07,23.07,0,0,1,208.52,73.54Z"/><rect class="cls-6" x="95.74" y="8.1" width="2.52" height="92.61"/><path class="cls-7" d="M10,144.66a4.12,4.12,0,0,1-1.69,1.61,6.06,6.06,0,0,1-2.84.61H3.37v5H0V138H5.46a6.24,6.24,0,0,1,2.8.57A3.92,3.92,0,0,1,10,140.16a4.59,4.59,0,0,1,.57,2.3A4.44,4.44,0,0,1,10,144.66Zm-3.35-.92a2,2,0,0,0,0-2.56,2,2,0,0,0-1.44-.45H3.37v3.47H5.2A2,2,0,0,0,6.64,143.74Z"/><path class="cls-7" d="M12.27,143.35a4.78,4.78,0,0,1,1.74-2,4.58,4.58,0,0,1,2.47-.69,4.32,4.32,0,0,1,2,.47,3.6,3.6,0,0,1,1.35,1.24v-1.55h3.37v11H19.87v-1.55a3.74,3.74,0,0,1-1.37,1.24,4.32,4.32,0,0,1-2,.47,4.46,4.46,0,0,1-2.45-.7,4.78,4.78,0,0,1-1.74-2,7.26,7.26,0,0,1,0-6Zm6.9,1a2.39,2.39,0,0,0-3.41,0,2.71,2.71,0,0,0-.7,2,2.79,2.79,0,0,0,.7,2,2.24,2.24,0,0,0,1.7.73,2.3,2.3,0,0,0,1.71-.72,3.19,3.19,0,0,0,0-4Z"/><path class="cls-7" d="M30.53,141.25a3.79,3.79,0,0,1,2-.52v3.57h-.93a2.84,2.84,0,0,0-1.89.54,2.4,2.4,0,0,0-.63,1.9v5.1H25.68v-11h3.37v1.83A4.49,4.49,0,0,1,30.53,141.25Z"/><path class="cls-7" d="M40.24,149v2.85H38.53a4.24,4.24,0,0,1-2.86-.89,3.73,3.73,0,0,1-1-2.93v-4.37H33.31v-2.8h1.34v-2.68H38v2.68h2.2v2.8H38v4.41a.92.92,0,0,0,.23.71A1.18,1.18,0,0,0,39,149Z"/><path class="cls-7" d="M48.39,151.31a5.06,5.06,0,0,1-2-2,6.37,6.37,0,0,1,0-6,5.07,5.07,0,0,1,2.05-2,6.52,6.52,0,0,1,5.84,0,5,5,0,0,1,2,2,5.85,5.85,0,0,1,.75,3,5.72,5.72,0,0,1-.76,3,5.1,5.1,0,0,1-2.06,2,6.21,6.21,0,0,1-2.93.69A6.07,6.07,0,0,1,48.39,151.31Zm4.55-2.94a2.76,2.76,0,0,0,.68-2,2.89,2.89,0,0,0-.66-2,2.25,2.25,0,0,0-3.26,0,2.89,2.89,0,0,0-.65,2,2.93,2.93,0,0,0,.64,2,2.05,2.05,0,0,0,1.61.71A2.16,2.16,0,0,0,52.94,148.37Z"/><path class="cls-7" d="M64.36,143.65H62.55v8.19H59.18v-8.19H58v-2.8h1.22v-.32a4,4,0,0,1,1.16-3.08,4.91,4.91,0,0,1,3.41-1.06l.56,0v2.86a1.88,1.88,0,0,0-1.36.28,1.48,1.48,0,0,0-.4,1.2v.1h1.81Z"/><path class="cls-7" d="M76.25,149v2.85H74.53a4.21,4.21,0,0,1-2.85-.89,3.7,3.7,0,0,1-1-2.93v-4.37H69.31v-2.8h1.34v-2.68H74v2.68h2.21v2.8H74v4.41a.92.92,0,0,0,.24.71,1.18,1.18,0,0,0,.79.22Z"/><path class="cls-7" d="M87.92,142a4.91,4.91,0,0,1,1.14,3.44v6.42H85.71v-6a2.4,2.4,0,0,0-.57-1.71,2.25,2.25,0,0,0-3.08,0,2.4,2.4,0,0,0-.57,1.71v6H78.12V137.26h3.37v5.06a3.66,3.66,0,0,1,1.4-1.16,4.44,4.44,0,0,1,2-.43A4,4,0,0,1,87.92,142Z"/><path class="cls-7" d="M101.71,147.15H94.08a2.35,2.35,0,0,0,.66,1.57,2,2,0,0,0,1.43.54,1.78,1.78,0,0,0,1.76-1.06h3.58a4.88,4.88,0,0,1-1,2,5,5,0,0,1-1.8,1.36,5.83,5.83,0,0,1-2.43.49,5.9,5.9,0,0,1-2.88-.69,5,5,0,0,1-2-2,6.09,6.09,0,0,1-.71-3,6.21,6.21,0,0,1,.7-3,4.89,4.89,0,0,1,2-2,6,6,0,0,1,2.9-.69,5.84,5.84,0,0,1,2.84.67,4.82,4.82,0,0,1,1.94,1.91,5.77,5.77,0,0,1,.7,2.9A8.44,8.44,0,0,1,101.71,147.15Zm-3.39-1.87a1.74,1.74,0,0,0-.59-1.38,2.18,2.18,0,0,0-1.48-.51,2.14,2.14,0,0,0-1.43.49,2.28,2.28,0,0,0-.72,1.4Z"/><path class="cls-7" d="M110.69,151.07a6.6,6.6,0,0,1-2.58-2.53,7.42,7.42,0,0,1,0-7.3,6.65,6.65,0,0,1,2.58-2.52,7.48,7.48,0,0,1,7.15,0,6.53,6.53,0,0,1,2.56,2.52,7.52,7.52,0,0,1,0,7.3,6.62,6.62,0,0,1-2.56,2.53,7.46,7.46,0,0,1-7.14,0Zm6.23-3.27a4.8,4.8,0,0,0,0-5.84,3.42,3.42,0,0,0-2.66-1.09,3.47,3.47,0,0,0-2.67,1.08,4.83,4.83,0,0,0,0,5.86,3.45,3.45,0,0,0,2.67,1.1A3.41,3.41,0,0,0,116.92,147.8Z"/><path class="cls-7" d="M136.2,138l-4.91,13.83h-4.22L122.17,138h3.58l3.43,10.44L132.63,138Z"/><path class="cls-7" d="M140.56,151.07a6.74,6.74,0,0,1-2.58-2.53,7.49,7.49,0,0,1,0-7.3,6.78,6.78,0,0,1,2.58-2.52,7.5,7.5,0,0,1,7.16,0,6.6,6.6,0,0,1,2.56,2.52,7.52,7.52,0,0,1,0,7.3,6.62,6.62,0,0,1-2.56,2.53,7.48,7.48,0,0,1-7.15,0Zm6.23-3.27a4.76,4.76,0,0,0,0-5.84,3.39,3.39,0,0,0-2.65-1.09,3.44,3.44,0,0,0-2.67,1.08,4.83,4.83,0,0,0,0,5.86,3.42,3.42,0,0,0,2.67,1.1A3.37,3.37,0,0,0,146.79,147.8Z"/><path class="cls-7" d="M166.27,138v2.7h-5.63v2.92h4.21v2.62h-4.21v5.59h-3.37V138Z"/><path class="cls-7" d="M168,143.35a4.72,4.72,0,0,1,1.74-2,4.57,4.57,0,0,1,2.46-.69,4.27,4.27,0,0,1,2,.47,3.46,3.46,0,0,1,1.35,1.24v-1.55H179v11h-3.37v-1.55a3.59,3.59,0,0,1-1.37,1.24,4.27,4.27,0,0,1-2,.47,4.45,4.45,0,0,1-2.44-.7,4.71,4.71,0,0,1-1.74-2,7.26,7.26,0,0,1,0-6Zm6.89,1a2.27,2.27,0,0,0-1.7-.72,2.29,2.29,0,0,0-1.7.71,2.71,2.71,0,0,0-.7,2,2.79,2.79,0,0,0,.7,2,2.24,2.24,0,0,0,1.7.73,2.27,2.27,0,0,0,1.7-.72,3.19,3.19,0,0,0,0-4Z"/><path class="cls-7" d="M198.72,142a4.73,4.73,0,0,1,1.21,3.45v6.42h-3.35v-6a2.22,2.22,0,0,0-.56-1.64,2.35,2.35,0,0,0-3.09,0,2.22,2.22,0,0,0-.56,1.64v6H189v-6a2.23,2.23,0,0,0-.57-1.64,2.35,2.35,0,0,0-3.09,0,2.26,2.26,0,0,0-.56,1.64v6h-3.37v-11h3.37v1.38a3.63,3.63,0,0,1,1.34-1.1,4.18,4.18,0,0,1,1.87-.4,4.61,4.61,0,0,1,2.22.53,3.86,3.86,0,0,1,1.53,1.52,4.32,4.32,0,0,1,1.55-1.48,4.24,4.24,0,0,1,2.15-.57A4.33,4.33,0,0,1,198.72,142Z"/><path class="cls-7" d="M202.54,139.18a1.79,1.79,0,0,1,0-2.6,2,2,0,0,1,1.45-.52,2,2,0,0,1,1.43.52,1.79,1.79,0,0,1,0,2.6,2,2,0,0,1-1.43.52A2,2,0,0,1,202.54,139.18Zm3.13,1.67v11H202.3v-11Z"/><path class="cls-7" d="M211.48,137.26v14.58h-3.37V137.26Z"/><path class="cls-7" d="M225.16,140.85l-6.9,16.22h-3.62l2.52-5.6-4.48-10.62h3.77l2.54,6.87,2.52-6.87Z"/></g></g></svg>
